<svg xmlns="http://www.w3.org/2000/svg" viewBox="0 0 720 480" role="img" aria-labelledby="title desc">
  <title id="title">Risk guardrails illustration</title>
  <desc id="desc">A simplified risk controller standing beside portfolio guardrails.</desc>
  <defs>
    <linearGradient id="bg" x1="0" y1="0" x2="1" y2="1">
      <stop offset="0" stop-color="#101722"/>
      <stop offset="1" stop-color="#182433"/>
    </linearGradient>
    <linearGradient id="rail" x1="0" y1="0" x2="1" y2="0">
      <stop offset="0" stop-color="#53ead9"/>
      <stop offset="1" stop-color="#f7c65f"/>
    </linearGradient>
  </defs>
  <rect width="720" height="480" rx="36" fill="url(#bg)"/>
  <rect x="92" y="294" width="536" height="42" rx="21" fill="#111827" stroke="#34445d" stroke-width="3"/>
  <rect x="116" y="306" width="214" height="18" rx="9" fill="url(#rail)"/>
  <rect x="356" y="306" width="138" height="18" rx="9" fill="#2a3547"/>
  <rect x="514" y="306" width="70" height="18" rx="9" fill="#ff6b8a" opacity=".72"/>
  <path d="M122 254 H598" stroke="#34445d" stroke-width="8" stroke-linecap="round" stroke-dasharray="2 28"/>
  <circle cx="210" cy="158" r="50" fill="#f0c46b"/>
  <path d="M168 158 C180 116 238 112 258 154 C232 140 195 140 168 158Z" fill="#101827"/>
  <path d="M170 212 H250 C282 250 292 310 286 376 H134 C128 306 138 250 170 212Z" fill="#8a7dff"/>
  <path d="M160 260 L94 222" stroke="#f0c46b" stroke-width="20" stroke-linecap="round"/>
  <path d="M260 258 L334 226" stroke="#f0c46b" stroke-width="20" stroke-linecap="round"/>
  <path d="M438 118 L548 162 V248 C548 312 504 356 438 386 C372 356 328 312 328 248 V162Z" fill="#111827" stroke="#53ead9" stroke-width="6"/>
  <path d="M394 244 L426 276 L492 198" fill="none" stroke="#53ead9" stroke-width="14" stroke-linecap="round" stroke-linejoin="round"/>
  <rect x="426" y="82" width="138" height="26" rx="13" fill="#f7c65f" opacity=".92"/>
  <rect x="446" y="396" width="122" height="16" rx="8" fill="#2c3a51"/>
</svg>
