<svg xmlns="http://www.w3.org/2000/svg" viewBox="0 0 600 380"><title>Replay and attribution</title><desc>A replay timeline connects decisions to positive and negative contributions. Conceptual illustration, not measured results.</desc><defs><marker id="arrow" markerWidth="8" markerHeight="8" refX="7" refY="4" orient="auto"><path d="M0 0L8 4L0 8" fill="#075644"/></marker></defs><rect x="45.0" y="55" width="139.33333333333334" height="60" rx="10" fill="none" stroke="#075644" stroke-width="4"/><text x="114.66666666666667" y="92" font-family="Arial,sans-serif" font-size="16" text-anchor="middle" fill="#075644">Decision</text><path d="M188.33333333333334 85L203.33333333333334 85" stroke="#075644" stroke-width="4" fill="none" marker-end="url(#arrow)"/><rect x="208.33333333333334" y="55" width="139.33333333333334" height="60" rx="10" fill="none" stroke="#075644" stroke-width="4"/><text x="278.0" y="92" font-family="Arial,sans-serif" font-size="16" text-anchor="middle" fill="#075644">Resize</text><path d="M351.6666666666667 85L366.6666666666667 85" stroke="#075644" stroke-width="4" fill="none" marker-end="url(#arrow)"/><rect x="371.6666666666667" y="55" width="139.33333333333334" height="60" rx="10" fill="none" stroke="#075644" stroke-width="4"/><text x="441.33333333333337" y="92" font-family="Arial,sans-serif" font-size="16" text-anchor="middle" fill="#075644">Outcome</text><polyline points="65,255 530,255" fill="none" stroke="#526f83" stroke-width="3" stroke-linejoin="round" stroke-linecap="round" stroke-dasharray=""/><rect x="85" y="195" width="90" height="60" rx="10" fill="#075644" stroke="#075644" stroke-width="4"/><rect x="255" y="255" width="90" height="30" rx="10" fill="#526f83" stroke="#075644" stroke-width="4"/><rect x="425" y="220" width="90" height="35" rx="10" fill="#075644" stroke="#075644" stroke-width="4"/><text x="130" y="325" font-family="Arial,sans-serif" font-size="16" text-anchor="middle" fill="#075644">Selection</text><text x="300" y="325" font-family="Arial,sans-serif" font-size="16" text-anchor="middle" fill="#075644">Sizing</text><text x="470" y="325" font-family="Arial,sans-serif" font-size="16" text-anchor="middle" fill="#075644">Execution</text></svg>